<svg fill="none" height="1749" viewBox="0 0 390 1749" width="390" xmlns="http://www.w3.org/2000/svg" xmlns:xlink="http://www.w3.org/1999/xlink"><linearGradient id="a" gradientUnits="userSpaceOnUse" x1="139.791" x2="-290.939" y1="74.9491" y2="338.156"><stop offset="0" stop-color="#8920fe"/><stop offset="1" stop-color="#7161fa"/></linearGradient><linearGradient id="b" gradientUnits="userSpaceOnUse" x1="164.6" x2="948.628" y1="247.036" y2="1140.05"><stop offset="0" stop-color="#8920fe" stop-opacity="0"/><stop offset=".492797" stop-color="#f928c6" stop-opacity=".54"/><stop offset="1" stop-color="#ff7e5b"/></linearGradient><path d="m-121 1749h588v-1340.678c0-17.939-2.293-35.804-6.823-53.162l-47.03-180.207c-15.58-59.701-64.509-104.8567-125.266-115.6074l-205.4658-36.3568c-75.21151-13.30848-149.1657 29.127-175.6277 100.7762l-21.2685 57.587c-4.312 11.676-6.519 24.023-6.519 36.469z" fill="url(#a)"/><path d="m-121 1749h588v-1340.678c0-17.939-2.293-35.804-6.823-53.162l-47.03-180.207c-15.58-59.701-64.509-104.8567-125.266-115.6075l-205.4658-36.3566c-75.21154-13.30854-149.1657 29.1269-175.6277 100.7761l-21.2685 57.587c-4.312 11.676-6.519 24.023-6.519 36.469z" fill="url(#b)"/></svg>