<svg width="1521" height="1997" viewBox="0 0 1521 1997" fill="none" xmlns="http://www.w3.org/2000/svg">
<path d="M211 155C211 69.3959 280.396 0 366 0H997.045C1046.52 0 1093.01 23.6144 1122.2 63.5593L1280.74 280.552C1309.26 319.59 1317.93 369.702 1304.19 416.056L868.313 1886.06C848.802 1951.86 788.341 1997 719.708 1997H366C280.396 1997 211 1927.6 211 1842V155Z" fill="url(#paint0_linear_65_59)"/>
<path d="M143 1.99995C143 0.895381 143.895 0 145 0H1007.54C1007.84 0 1008.14 0.0686803 1008.41 0.200867L1094.04 41.7773C1094.34 41.9234 1094.6 42.1427 1094.8 42.4151L1194 181.5L1307.5 354.235C1307.82 354.721 1307.91 355.321 1307.75 355.881L840.913 1995.55C840.669 1996.41 839.884 1997 838.99 1997H145C143.895 1997 143 1996.1 143 1995V1.99995Z" fill="url(#paint1_linear_65_59)"/>
<defs>
<linearGradient id="paint0_linear_65_59" x1="768.5" y1="0" x2="768.5" y2="1997" gradientUnits="userSpaceOnUse">
<stop stop-color="#E4C66C"/>
<stop offset="0.921875" stop-color="#B48C44"/>
</linearGradient>
<linearGradient id="paint1_linear_65_59" x1="734.5" y1="0" x2="734.5" y2="1997" gradientUnits="userSpaceOnUse">
<stop stop-color="#E4C66C"/>
<stop offset="0.567708" stop-color="#9B7C3E"/>
<stop offset="0.640625" stop-color="#956F29"/>
</linearGradient>
</defs>
</svg>
