<svg width="49" height="43" viewBox="0 0 49 43" fill="none" xmlns="http://www.w3.org/2000/svg">
<path fill-rule="evenodd" clip-rule="evenodd" d="M23.6506 7.84025C24.165 7.53934 24.835 7.53934 25.3494 7.84025L37.5994 15.0069C38.0254 15.2561 38.2813 15.6757 38.2813 16.125C38.2813 16.5743 38.0254 16.9938 37.5994 17.243L25.3494 24.4097C24.835 24.7106 24.165 24.7106 23.6506 24.4097L11.4006 17.243C10.9746 16.9938 10.7188 16.5743 10.7188 16.125C10.7188 15.6757 10.9746 15.2561 11.4006 15.0069L23.6506 7.84025ZM15.0105 16.125L24.5 21.6767L33.9895 16.125L24.5 10.5733L15.0105 16.125Z" fill="black"/>
<path fill-rule="evenodd" clip-rule="evenodd" d="M29.5422 2.63316C30.0497 2.18782 30.8416 2.11154 31.4471 2.44967L42.6762 8.7205C43.0309 8.91854 43.2771 9.23578 43.3573 9.59787C43.4375 9.95997 43.3445 10.3351 43.1002 10.6352L37.996 16.906C37.5156 17.4962 36.5883 17.6454 35.9006 17.2431L23.6506 10.0764C23.2689 9.8531 23.0214 9.49137 22.9762 9.09075C22.931 8.69013 23.0928 8.29283 23.4172 8.00816L29.5422 2.63316ZM30.8392 5.29572L26.9035 8.74949L36.3657 14.2852L39.6692 10.2267L30.8392 5.29572Z" fill="black"/>
<path fill-rule="evenodd" clip-rule="evenodd" d="M17.5529 2.44967C18.1584 2.11154 18.9503 2.18782 19.4578 2.63316L25.5828 8.00816C25.9071 8.29283 26.069 8.69013 26.0238 9.09075C25.9786 9.49137 25.7311 9.8531 25.3494 10.0764L13.0994 17.2431C12.4117 17.6454 11.4843 17.4962 11.004 16.906L5.89981 10.6352C5.65549 10.3351 5.56253 9.95997 5.6427 9.59787C5.72287 9.23578 5.96913 8.91854 6.32375 8.7205L17.5529 2.44967ZM9.33084 10.2267L12.6343 14.2852L22.0965 8.74949L18.1608 5.29572L9.33084 10.2267Z" fill="black"/>
<path fill-rule="evenodd" clip-rule="evenodd" d="M35.9006 15.0069C36.3832 14.7246 37.0061 14.7058 37.5097 14.9583L44.6556 18.5416C45.1032 18.7661 45.3921 19.1732 45.4241 19.6248C45.4562 20.0764 45.2271 20.5119 44.8146 20.7833L32.5646 28.8458C32.0307 29.1972 31.2989 29.2047 30.7558 28.8643L23.61 24.3851C23.2005 24.1284 22.9608 23.7116 22.9689 23.27C22.9771 22.8284 23.2319 22.4186 23.6506 22.1736L35.9006 15.0069ZM36.812 17.7037L27.1953 23.3298L31.6238 26.1057L41.1127 19.8604L36.812 17.7037Z" fill="black"/>
<path fill-rule="evenodd" clip-rule="evenodd" d="M11.4903 14.9583C11.9939 14.7058 12.6168 14.7246 13.0994 15.0069L25.3494 22.1736C25.7681 22.4186 26.0229 22.8284 26.031 23.27C26.0392 23.7116 25.7995 24.1284 25.39 24.3851L18.2442 28.8643C17.7011 29.2047 16.9693 29.1972 16.4354 28.8458L4.18541 20.7833C3.77293 20.5119 3.54383 20.0764 3.57587 19.6248C3.60791 19.1732 3.89678 18.7661 4.34445 18.5416L11.4903 14.9583ZM7.88727 19.8604L17.3762 26.1057L21.8047 23.3298L12.188 17.7037L7.88727 19.8604Z" fill="black"/>
<path fill-rule="evenodd" clip-rule="evenodd" d="M12.25 23.7396C13.0957 23.7396 13.7812 24.3412 13.7812 25.0833V32.374L24.5 37.861L35.2188 32.374V25.0833C35.2188 24.3412 35.9043 23.7396 36.75 23.7396C37.5957 23.7396 38.2813 24.3412 38.2813 25.0833V33.1458C38.2813 33.6237 37.992 34.0657 37.5216 34.3065L25.2716 40.5773C24.7948 40.8214 24.2052 40.8214 23.7284 40.5773L11.4784 34.3065C11.008 34.0657 10.7188 33.6237 10.7188 33.1458V25.0833C10.7188 24.3412 11.4043 23.7396 12.25 23.7396Z" fill="black"/>
</svg>
