<svg width="39" height="39" viewBox="0 0 39 39" fill="none" xmlns="http://www.w3.org/2000/svg">
<path fill-rule="evenodd" clip-rule="evenodd" d="M2.03113 4.875C2.03113 4.2019 2.57678 3.65625 3.24988 3.65625H35.7499C36.423 3.65625 36.9686 4.2019 36.9686 4.875V22.75C36.9686 23.4231 36.423 23.9688 35.7499 23.9688H3.24988C2.57678 23.9688 2.03113 23.4231 2.03113 22.75V4.875ZM4.46863 6.09375V21.5312H34.5311V6.09375H4.46863Z" fill="black"/>
<path fill-rule="evenodd" clip-rule="evenodd" d="M3.24988 21.5312C3.92297 21.5312 4.46863 22.0769 4.46863 22.75V28.0312H34.5311V22.75C34.5311 22.0769 35.0768 21.5312 35.7499 21.5312C36.423 21.5312 36.9686 22.0769 36.9686 22.75V29.25C36.9686 29.9231 36.423 30.4688 35.7499 30.4688H3.24988C2.57678 30.4688 2.03113 29.9231 2.03113 29.25V22.75C2.03113 22.0769 2.57678 21.5312 3.24988 21.5312Z" fill="black"/>
<path d="M10.6362 14.625H8.86352C8.45557 14.625 8.12488 14.9557 8.12488 15.3636V17.1364C8.12488 17.5443 8.45557 17.875 8.86352 17.875H10.6362C11.0442 17.875 11.3749 17.5443 11.3749 17.1364V15.3636C11.3749 14.9557 11.0442 14.625 10.6362 14.625Z" fill="black"/>
<path d="M10.6362 9.75H8.86352C8.45557 9.75 8.12488 10.0807 8.12488 10.4886V12.2614C8.12488 12.6693 8.45557 13 8.86352 13H10.6362C11.0442 13 11.3749 12.6693 11.3749 12.2614V10.4886C11.3749 10.0807 11.0442 9.75 10.6362 9.75Z" fill="black"/>
<path d="M17.1362 14.625H15.3635C14.9556 14.625 14.6249 14.9557 14.6249 15.3636V17.1364C14.6249 17.5443 14.9556 17.875 15.3635 17.875H17.1362C17.5442 17.875 17.8749 17.5443 17.8749 17.1364V15.3636C17.8749 14.9557 17.5442 14.625 17.1362 14.625Z" fill="black"/>
<path d="M17.1362 9.75H15.3635C14.9556 9.75 14.6249 10.0807 14.6249 10.4886V12.2614C14.6249 12.6693 14.9556 13 15.3635 13H17.1362C17.5442 13 17.8749 12.6693 17.8749 12.2614V10.4886C17.8749 10.0807 17.5442 9.75 17.1362 9.75Z" fill="black"/>
<path d="M23.6362 14.625H21.8635C21.4556 14.625 21.1249 14.9557 21.1249 15.3636V17.1364C21.1249 17.5443 21.4556 17.875 21.8635 17.875H23.6362C24.0442 17.875 24.3749 17.5443 24.3749 17.1364V15.3636C24.3749 14.9557 24.0442 14.625 23.6362 14.625Z" fill="black"/>
<path d="M23.6362 9.75H21.8635C21.4556 9.75 21.1249 10.0807 21.1249 10.4886V12.2614C21.1249 12.6693 21.4556 13 21.8635 13H23.6362C24.0442 13 24.3749 12.6693 24.3749 12.2614V10.4886C24.3749 10.0807 24.0442 9.75 23.6362 9.75Z" fill="black"/>
<path d="M30.1362 9.75H28.3635C27.9556 9.75 27.6249 10.0807 27.6249 10.4886V12.2614C27.6249 12.6693 27.9556 13 28.3635 13H30.1362C30.5442 13 30.8749 12.6693 30.8749 12.2614V10.4886C30.8749 10.0807 30.5442 9.75 30.1362 9.75Z" fill="black"/>
<path fill-rule="evenodd" clip-rule="evenodd" d="M17.7032 28.3019C18.2268 28.7249 18.3085 29.4922 17.8855 30.0158L15.5509 32.9063H23.4488L21.1142 30.0158C20.6913 29.4922 20.7729 28.7249 21.2965 28.3019C21.8202 27.879 22.5875 27.9606 23.0104 28.4843L26.948 33.3593C27.243 33.7245 27.302 34.2268 27.0996 34.6504C26.8972 35.0741 26.4694 35.3438 25.9999 35.3438H12.9999C12.5304 35.3438 12.1026 35.0741 11.9002 34.6504C11.6978 34.2268 11.7567 33.7245 12.0518 33.3593L15.9893 28.4843C16.4122 27.9606 17.1796 27.879 17.7032 28.3019Z" fill="black"/>
</svg>
