<svg width="115" height="35" viewBox="0 0 115 35" fill="none" xmlns="http://www.w3.org/2000/svg">
<path d="M5.28396 24.056C4.6075 23.7927 4.23663 23.6732 3.54645 23.6732C2.80313 23.6732 1.92599 23.938 1.92599 24.9017C1.92599 26.6719 5.90875 26.2634 5.90875 29.2997C5.90875 31.2665 4.38863 32.0487 2.52343 32.0487C1.87276 32.0487 1.2359 31.8626 0.626314 31.6644L0.758563 30.436C1.21457 30.6221 2.00658 30.8899 2.68303 30.8899C3.44314 30.8899 4.50716 30.4677 4.50716 29.3769C4.50716 27.3163 0.52597 27.8837 0.52597 25.0167C0.52597 23.3797 1.82565 22.5068 3.49934 22.5068C4.17125 22.5118 4.83778 22.6263 5.4725 22.8457L5.28702 24.056" fill="#B9BEC7"/>
<path d="M12.7844 31.6204C12.3056 31.7929 11.7614 32.0577 10.6471 32.0577C8.24532 32.0577 7.14319 30.6038 7.14319 28.4116C7.14319 26.416 8.40336 25.0029 10.3158 25.0029C12.5716 25.0029 13.3013 26.6414 13.3013 28.808H8.47031C8.46477 29.1022 8.5185 29.3944 8.62834 29.6676C8.73811 29.9408 8.90177 30.1893 9.10956 30.3985C9.31744 30.6078 9.56524 30.7734 9.83842 30.8859C10.1117 30.9984 10.4047 31.0551 10.7004 31.0531C11.5227 31.0531 12.4789 30.631 12.7844 30.3798V31.6204ZM11.9742 27.8821C11.9742 26.8518 11.3661 26.0075 10.2883 26.0075C9.0722 26.0075 8.56296 27.0106 8.46419 27.8821H11.9742Z" fill="#B9BEC7"/>
<path d="M19.2738 26.2952C18.8459 26.1124 18.3864 26.0137 17.9208 26.0047C16.5269 26.0047 15.744 27.2453 15.744 28.5267C15.744 29.7295 16.3947 31.0503 17.9999 31.0503C18.4735 31.0466 18.9371 30.9142 19.3407 30.6675L19.4334 31.7765C18.9371 31.9782 18.4034 32.0731 17.8677 32.0549C15.8231 32.0549 14.417 30.4558 14.417 28.5267C14.417 26.4798 15.7972 25.0002 17.8677 25.0002C18.3856 25.0037 18.8994 25.0932 19.3878 25.2649L19.2814 26.2952" fill="#B9BEC7"/>
<path d="M26.8532 31.8958H25.6462V30.8247H25.6188C25.2479 31.5917 24.3449 32.0547 23.4025 32.0547C21.6498 32.0547 20.8669 30.9714 20.8669 29.1605V25.1588H22.115V28.646C22.115 30.218 22.46 30.9835 23.5484 31.0501C24.9682 31.0501 25.6052 29.9139 25.6052 28.2754V25.1588H26.8532V31.8958Z" fill="#B9BEC7"/>
<path d="M28.9768 25.1587H30.1458V26.2026H30.1716C30.5031 25.5021 31.2205 24.9998 31.9366 24.9998C32.2139 24.9981 32.4904 25.0291 32.7605 25.0921V26.2026C32.5403 26.1187 32.306 26.0781 32.0703 26.083C30.9545 26.083 30.2249 27.1421 30.2249 28.8305V31.8957H28.9768V25.1587Z" fill="#B9BEC7"/>
<path d="M35.6275 23.6519H34.2198V22.2525H35.6275V23.6519ZM34.3004 25.1649H35.547V31.9019H34.3004V25.1649Z" fill="#B9BEC7"/>
<path d="M41.4284 26.1632H39.6361V29.8472C39.6361 30.6278 40.1135 31.0575 40.685 31.0575C40.9854 31.0618 41.2806 30.9793 41.5348 30.82V31.879C41.1906 31.9901 40.8324 32.0527 40.4707 32.0651C39.1832 32.0651 38.3866 31.4599 38.3866 30.1089V26.1753H36.8664V25.1707H38.3866V23.6019L39.6346 23.207V25.1617H41.4269V26.1663" fill="#B9BEC7"/>
<path d="M42.4893 33.7188C42.6773 33.7836 42.8742 33.8189 43.073 33.8232C44.1889 33.8232 44.5598 32.2922 44.5598 32.1591C44.5598 32.0259 44.4077 31.6704 44.3211 31.4465L42.0257 25.1588H43.3938L45.2179 30.7323H45.2454L47.103 25.1588H48.3631L45.8686 32.041C45.4034 33.3346 44.9124 34.8278 43.2677 34.8278C42.9819 34.8265 42.6972 34.7956 42.4179 34.7355L42.4969 33.7188" fill="#B9BEC7"/>
<path d="M0.519904 12.9917C2.06995 13.8083 3.79778 14.2338 5.55156 14.2308C6.99721 14.2308 8.66479 13.9448 8.66479 12.6422C8.66479 9.60427 0.0365337 11.3471 0.0365337 5.14426C0.0365337 1.04727 3.83687 0.000268531 7.26783 0.000268531C9.04128 -0.00965014 10.8055 0.255261 12.4971 0.785497L12.0714 4.4392C10.869 3.94451 9.34587 3.44676 7.62804 3.44676C6.47433 3.44676 4.69418 3.52239 4.69418 5.00953C4.69418 7.69344 13.3681 6.30466 13.3681 12.2564C13.3681 16.6711 9.34884 17.6787 5.55156 17.6787C3.67049 17.6731 1.80024 17.3943 0 16.8512L0.521475 12.9917H0.519904ZM28.9328 0.327089H14.5614V3.78259H19.4699V17.3474H24.0304V3.78259H28.9358L28.9328 0.327089ZM109.677 0.327089L106.367 7.15485L103.01 0.327089H97.7651L104.087 10.9341V17.3504H108.647V10.9341L114.923 0.327089H109.677ZM48.5822 0.327089V17.3504H52.9693V8.17003L60.4103 17.3444H64.1392V14.7875L52.3338 0.327089H48.5822ZM64.1392 8.95071V0.327089H57.1572L64.1392 8.95071ZM87.8836 10.4636H95.0721V7.06716H87.8836V3.67365H95.7888V0.327089H83.2094V17.3504H96.0516V13.9554H87.8836V10.4636ZM72.9742 0.327089H68.2998V17.3504H80.4537V13.8435H72.9742V0.327089ZM40.156 13.9434H33.7547L32.5933 17.3444H28.1454L34.416 0.327089H39.7121L46.0754 17.3504H41.2763L40.156 13.9434ZM39.1511 10.7253L37.023 3.89004L34.8051 10.7253H39.1511Z" fill="#B9BEC7"/>
<path d="M112.072 15.9424C112.072 15.6543 112.158 15.3726 112.319 15.133C112.479 14.8933 112.708 14.7066 112.976 14.5964C113.243 14.4861 113.537 14.4573 113.822 14.5135C114.105 14.5697 114.366 14.7084 114.571 14.9122C114.775 15.1159 114.915 15.3756 114.971 15.6582C115.028 15.9408 114.999 16.2337 114.889 16.4999C114.778 16.7662 114.59 16.9937 114.349 17.1538C114.108 17.3139 113.826 17.3993 113.536 17.3993C113.148 17.3986 112.776 17.2448 112.502 16.9717C112.227 16.6986 112.073 16.3286 112.072 15.9424ZM114.644 15.9424C114.644 15.2616 114.148 14.7684 113.536 14.7684C112.923 14.7684 112.429 15.2616 112.429 15.9424C112.429 16.6232 112.925 17.1179 113.536 17.1179C114.147 17.1179 114.644 16.6247 114.644 15.9424ZM112.972 15.1118H113.588C113.984 15.1118 114.195 15.2495 114.195 15.5959C114.195 15.8789 114.033 16.015 113.761 16.0408L114.208 16.7624H113.892L113.461 16.0528H113.28V16.7624H112.977L112.972 15.1118ZM113.276 15.8183H113.554C113.737 15.8183 113.894 15.7941 113.894 15.5717C113.894 15.378 113.717 15.3463 113.559 15.3463H113.28L113.276 15.8183Z" fill="#B9BEC7"/>
</svg>
